<svg width="210" height="163" viewBox="0 0 210 163" fill="none" xmlns="http://www.w3.org/2000/svg">
<rect width="209.357" height="162.891" transform="translate(0.0973206 0.0398102)" fill="white"/>
<path d="M101.96 137.62C103.17 142.63 103.98 148.03 103.77 149.62L103.37 152.5L101.78 149C100.9 147.08 98.32 141.27 96.04 136.1C90.37 123.21 86.03 117.03 77.14 109.19C60.57 94.59 56.42 89.27 51.89 76.86C47.14 63.85 42.29 36 44.77 36C45.2 36 48.56 36.84 52.24 37.86C58.77 39.67 67.33 45.01 72.88 50.74C78.64 56.69 84.01 68.07 89.01 85C90.23 89.12 91.65 93.57 92.15 94.88C94.31 100.44 91.99 97.21 86.44 86.93C77.1 69.62 70.73 59 69.68 59C68.18 59 69.57 72.88 71.58 78C72.56 80.48 75.54 85.76 78.21 89.75C80.88 93.74 83.36 97.79 83.73 98.75C84.09 99.71 85.88 102.58 87.7 105.13C92.84 112.31 99.54 127.57 101.96 137.62Z" fill="#50553B"/>
<path d="M109.49 144C107.97 148.12 106.34 151.93 105.87 152.45C104.15 154.33 105.04 145.11 107.5 135.39C110.61 123.15 114.93 113.93 123.14 102.03C137.3 81.51 140.03 75.44 139.97 64.57C139.94 58.92 139.83 58.64 138.41 60.5C136.29 63.29 127 78.77 127 79.52C127 79.86 125.93 81.57 124.61 83.32C121.34 87.68 116.95 96.62 117.71 97.38C118.05 97.72 117.78 98 117.11 98C116.43 98 116.16 98.45 116.5 99C116.84 99.55 116.64 100 116.06 100C115.48 100 115 99.84 115 99.64C115 98.03 126.68 67.1 129.2 62.07C133.09 54.27 141.74 45.18 148.51 41.76C154.67 38.65 164.75 35.42 165.61 36.28C165.96 36.63 165.45 41.32 164.48 46.71C163.51 52.09 162.76 57.74 162.81 59.25C162.87 60.76 162.57 62 162.14 62C161.71 62 160.83 64.79 160.2 68.19C159.57 71.6 156.97 78.57 154.44 83.68C150.37 91.88 148.87 93.8 141.66 100.06C122.08 117.08 116.7 124.43 109.49 144Z" fill="#50553B"/>
<path d="M102.36 160.25C102.73 161.76 102.69 162.97 102.27 162.93C101.85 162.89 97.9 161.28 93.5 159.36C83.63 155.03 71.45 152.35 54.61 150.81C41.04 149.57 30.13 150.26 10.69 153.61C5.85001 154.44 1.17 154.98 0.289998 154.81C-0.810002 154.6 2.77001 150.01 11.8 140.07C19.01 132.13 25.64 125.22 26.53 124.72C28.34 123.71 30.05 124.71 28.39 125.8C27.12 126.64 19.93 137.26 20.35 137.68C20.51 137.84 25.11 136.79 30.57 135.34C43.3 131.97 58.22 131.61 68 134.44C79.71 137.83 88.85 143.23 95.59 150.72C98.94 154.45 101.98 158.74 102.36 160.25Z" fill="#50553B"/>
<path d="M116.5 158.9C112.1 160.5 107.65 162.14 106.62 162.56C103.78 163.7 111.23 152.45 116.59 147.49C118.98 145.29 124.66 141.56 129.23 139.2C144.71 131.2 161.61 130.29 181.26 136.38C185.52 137.7 189.23 138.44 189.48 138.03C189.74 137.61 188.14 134.68 185.93 131.52C181.62 125.37 181.41 122.63 185.61 127.54C187 129.17 192.72 135.39 198.32 141.36C211.19 155.09 211.45 155.51 206.39 154.62L193.5 152.34C187.55 151.29 178.24 150.74 166 150.7C149.35 150.65 146.35 150.91 136 153.33C129.67 154.8 120.9 157.31 116.5 158.9Z" fill="#50553B"/>
<path d="M97.5 145C98.79 148.3 99.77 150.99 99.68 150.97C99.58 150.95 95.88 147.43 91.45 143.14C78.92 130.98 69.01 125.81 50 121.49C35.15 118.12 22.83 109.29 13.86 95.59C11.74 92.35 10 89.32 10 88.87C10 88.42 12.59 87.26 15.75 86.28C24.73 83.51 42.63 83.93 50.43 87.1C59.22 90.66 58.84 92 49.02 92C40.46 92 37 93.04 37 95.62C37 96.46 39.59 99.75 42.76 102.92C48.05 108.21 49.4 108.97 59.51 112.34C65.69 114.4 73.02 117.68 76.25 119.83C84.06 125.02 94.53 137.43 97.5 145Z" fill="#50553B"/>
<path d="M115.19 145.33C112.27 148.45 109.66 151 109.38 151C108.52 151 110.08 146.77 112.86 141.56C114.31 138.85 118.76 133.17 122.75 128.94C131.01 120.17 138.43 115.78 152.13 111.56C158.1 109.72 162.05 107.79 164.96 105.3C169.5 101.42 174.55 94.22 173.49 93.16C173.13 92.79 168.15 92.5 162.42 92.5C155.94 92.5 152.11 92.12 152.3 91.5C152.79 89.89 161.04 86.2 167 84.93C170.21 84.24 176.04 83.98 181 84.3C189.29 84.83 200 86.93 200 88.02C200 90.2 190.27 102.86 184.75 107.86C176.08 115.7 170.65 118.39 155.13 122.51C138.56 126.92 138.41 126.97 131.93 130.72C126.1 134.09 123.93 135.98 115.19 145.33Z" fill="#50553B"/>
<path d="M92 155.99C98.59 159.48 98.79 159.53 96.6 157.11C94.23 154.49 76.06 145.76 67 142.88C56.38 139.51 36.77 139.67 23.25 143.23C18.16 144.57 13.78 145.88 13.53 146.14C13.27 146.4 22.19 146.42 33.35 146.18C45.22 145.93 57.06 146.22 61.88 146.86C71.87 148.21 84.56 152.05 92 155.99Z" fill="#50553B"/>
<path d="M107.02 56C105.05 70.23 104.49 71.57 103.68 63.99C102.83 55.94 100.66 45.42 97.29 33C93.81 20.15 93.68 19.41 94.41 16.52C95.34 12.78 97.15 13.43 101.43 19.04L105.27 24.08L107.27 20.79C108.37 18.98 110.08 16.46 111.07 15.19L112.88 12.88L114.6 15.51C116.23 18 116.23 18.43 114.6 23.61C111.44 33.63 108.22 47.41 107.02 56Z" fill="#50553B"/>
<path d="M114 156.12C111.29 158.3 111.79 158.14 120 154.22C133.05 147.98 148.64 145.73 175.82 146.17C187.43 146.36 195.53 146.13 195.02 145.62C194.22 144.82 189.4 143.8 173 140.96C157.48 138.28 140.54 141.54 123.35 150.53C119.58 152.5 115.38 155.01 114 156.12Z" fill="#50553B"/>
<path d="M20.3 106.29C13.42 99.57 4.99 89.17 5.01 87.41C5.01 86.38 17.44 83.21 24.9 82.33C30.17 81.7 41 82.71 41 83.82C41 84.19 36.61 84.52 31.25 84.54C21.78 84.58 10 86.98 10 88.87C10 90.63 18.03 101.78 22.95 106.85C30.55 114.68 28.42 114.24 20.3 106.29Z" fill="#DFCD89"/>
<path d="M188 106.23C188 105.62 188.48 104.82 189.06 104.46C190.18 103.77 200 89.03 200 88.04C200 86.8 188.93 84.78 179 84.21C167.93 83.59 168.86 82.32 180.5 82.15C185.82 82.08 203.06 85.73 204.58 87.25C205.21 87.88 194.83 101 190.61 104.92C189.17 106.26 188 106.85 188 106.23Z" fill="#DFCD89"/>
<path d="M44.51 55.76C42.2 47.5 39.03 31.63 39.59 31.07C41.14 29.53 58.41 36.78 63.77 41.23C66.2 43.24 64.09 43.22 60.8 41.2C58.12 39.55 47.06 36 44.61 36C43.69 36 43.92 43.95 44.97 48.5C46.08 53.36 47.15 62 46.63 62C46.43 62 45.48 59.19 44.51 55.76Z" fill="#DFCD89"/>
<path d="M163.07 57.32C163.03 56.66 163.73 51.81 164.62 46.52C165.52 41.24 165.96 36.63 165.61 36.28C164.81 35.47 154.98 38.54 148.75 41.53C146.14 42.79 144.01 43.52 144.01 43.16C144.05 41.34 163.56 31 166.96 31C168.94 31 170.41 34.75 169.1 36.45C168.65 37.03 167.77 40.2 167.13 43.5C165.86 50.07 163.17 59.2 163.07 57.32Z" fill="#DFCD89"/>
<path d="M102.41 20.29C100.85 18.24 98.76 15.76 97.76 14.76C96.28 13.28 96.16 12.56 97.11 10.73C99.94 5.25 103.6 0.0699966 104.65 0.0399966C106.23 -0.0100034 111.76 10.01 111.53 12.5C111.43 13.6 109.98 16.64 108.3 19.25L105.24 24.01L102.41 20.29Z" fill="#DFCD89"/>
</svg>
